<?xml version="1.0" standalone="no"?>
<!DOCTYPE svg PUBLIC "-//W3C//DTD SVG 20010904//EN"
 "http://www.w3.org/TR/2001/REC-SVG-20010904/DTD/svg10.dtd">
<svg version="1.0" xmlns="http://www.w3.org/2000/svg"
 width="260.000000pt" height="260.000000pt" viewBox="0 0 260.000000 260.000000"
 preserveAspectRatio="xMidYMid meet">
<metadata>
Created by potrace 1.11, written by Peter Selinger 2001-2013
</metadata>
<g transform="translate(0.000000,260.000000) scale(0.100000,-0.100000)"
fill="#000000" stroke="none">
<path d="M0 2464 l0 -135 23 7 c12 4 33 9 47 11 14 2 67 10 118 17 344 53 831
44 1115 -19 37 -8 96 -22 132 -30 203 -45 450 -117 815 -239 124 -41 253 -83
288 -94 l62 -19 0 318 0 319 -1300 0 -1300 0 0 -136z"/>
<path d="M768 2383 c6 -2 18 -2 25 0 6 3 1 5 -13 5 -14 0 -19 -2 -12 -5z"/>
<path d="M805 2270 c3 -5 8 -10 11 -10 2 0 4 5 4 10 0 6 -5 10 -11 10 -5 0 -7
-4 -4 -10z"/>
<path d="M1040 2264 c0 -17 22 -14 28 4 2 7 -3 12 -12 12 -9 0 -16 -7 -16 -16z"/>
<path d="M735 2250 c-3 -5 -1 -10 4 -10 6 0 11 5 11 10 0 6 -2 10 -4 10 -3 0
-8 -4 -11 -10z"/>
<path d="M996 2241 c-4 -5 -2 -12 3 -15 5 -4 12 -2 15 3 4 5 2 12 -3 15 -5 4
-12 2 -15 -3z"/>
<path d="M780 2232 c0 -12 49 -37 56 -29 10 10 -7 29 -22 23 -8 -3 -14 -1 -14
4 0 6 -4 10 -10 10 -5 0 -10 -4 -10 -8z"/>
<path d="M1080 2221 c0 -6 5 -13 10 -16 6 -3 10 1 10 9 0 9 -4 16 -10 16 -5 0
-10 -4 -10 -9z"/>
<path d="M1677 2219 c7 -7 15 -10 18 -7 3 3 -2 9 -12 12 -14 6 -15 5 -6 -5z"/>
<path d="M610 2180 c-13 -8 -12 -12 5 -30 19 -18 22 -19 43 -4 12 8 22 22 22
30 0 17 -26 19 -33 2 -4 -10 -7 -10 -14 -1 -6 8 -14 9 -23 3z"/>
<path d="M772 2178 c7 -19 38 -22 38 -4 0 10 -9 16 -21 16 -12 0 -19 -5 -17
-12z"/>
<path d="M375 2170 c3 -5 8 -10 11 -10 2 0 4 5 4 10 0 6 -5 10 -11 10 -5 0 -7
-4 -4 -10z"/>
<path d="M56 2143 c-8 -20 -3 -25 21 -21 17 3 17 4 1 20 -15 15 -17 15 -22 1z"/>
<path d="M1441 2144 c0 -11 3 -14 6 -6 3 7 2 16 -1 19 -3 4 -6 -2 -5 -13z"/>
<path d="M536 2141 c-4 -5 -2 -12 3 -15 5 -4 12 -2 15 3 4 5 2 12 -3 15 -5 4
-12 2 -15 -3z"/>
<path d="M720 2136 c0 -9 5 -16 10 -16 6 0 10 4 10 9 0 6 -4 13 -10 16 -5 3
-10 -1 -10 -9z"/>
<path d="M760 2135 c0 -8 5 -15 10 -15 6 0 10 -7 10 -15 0 -23 26 -29 50 -12
23 16 20 21 -22 31 -16 3 -28 11 -28 16 0 6 -4 10 -10 10 -5 0 -10 -7 -10 -15z"/>
<path d="M910 2139 c0 -17 28 -40 35 -29 3 5 1 10 -4 10 -6 0 -11 7 -11 15 0
8 -4 15 -10 15 -5 0 -10 -5 -10 -11z"/>
<path d="M1176 2141 c-4 -7 -5 -15 -2 -18 9 -9 19 4 14 18 -4 11 -6 11 -12 0z"/>
<path d="M1253 2143 c-18 -7 -16 -33 2 -33 8 0 15 9 15 20 0 11 -1 20 -2 19
-2 0 -9 -3 -15 -6z"/>
<path d="M354 2129 c-4 -7 -3 -14 4 -17 7 -2 12 -10 12 -18 0 -16 16 -19 25
-4 3 5 -3 19 -13 31 -15 15 -22 17 -28 8z"/>
<path d="M1137 2121 c-3 -12 -1 -21 3 -21 15 0 23 21 12 32 -6 6 -11 2 -15
-11z"/>
<path d="M1364 2129 c-3 -6 -1 -16 5 -22 8 -8 11 -5 11 11 0 24 -5 28 -16 11z"/>
<path d="M410 2115 c0 -8 5 -15 10 -15 6 0 10 7 10 15 0 8 -4 15 -10 15 -5 0
-10 -7 -10 -15z"/>
<path d="M565 2120 c-8 -13 4 -32 16 -25 5 4 9 1 9 -5 0 -7 8 -9 22 -5 17 6
20 4 14 -11 -4 -10 -4 -15 0 -11 4 4 13 -1 20 -11 9 -12 16 -14 23 -7 7 7 3
19 -14 39 -14 16 -25 26 -25 21 0 -4 -6 -3 -12 2 -22 17 -47 23 -53 13z"/>
<path d="M1320 2115 c0 -8 5 -15 10 -15 6 0 10 7 10 15 0 8 -4 15 -10 15 -5 0
-10 -7 -10 -15z"/>
<path d="M300 2100 c0 -11 4 -20 9 -20 13 0 32 26 24 33 -13 14 -33 6 -33 -13z"/>
<path d="M467 2099 c3 -10 11 -15 19 -12 21 8 17 32 -5 30 -12 -1 -17 -7 -14
-18z"/>
<path d="M1018 2106 c-26 -19 -10 -28 18 -9 13 8 31 13 39 9 13 -5 12 -9 -7
-28 -21 -21 -21 -23 -4 -26 26 -5 50 21 41 47 -7 25 -59 29 -87 7z"/>
<path d="M1550 2109 c0 -5 5 -7 10 -4 6 3 10 8 10 11 0 2 -4 4 -10 4 -5 0 -10
-5 -10 -11z"/>
<path d="M103 2098 c2 -7 10 -13 17 -13 7 0 15 6 18 13 2 7 -5 12 -18 12 -13
0 -20 -5 -17 -12z"/>
<path d="M892 2099 c2 -6 8 -10 13 -10 5 0 11 4 13 10 2 6 -4 11 -13 11 -9 0
-15 -5 -13 -11z"/>
<path d="M1175 2100 c3 -5 0 -10 -6 -12 -16 -5 1 -38 20 -38 24 0 24 47 0 53
-11 3 -17 1 -14 -3z"/>
<path d="M1696 2101 c-3 -5 1 -11 9 -15 15 -6 29 7 18 18 -9 9 -21 8 -27 -3z"/>
<path d="M61 2086 c-16 -19 -11 -29 8 -17 7 5 12 14 9 21 -3 9 -8 7 -17 -4z"/>
<path d="M530 2086 c0 -8 -7 -16 -15 -20 -8 -3 -13 -11 -11 -18 15 -49 16 -68
1 -68 -8 0 -15 -9 -15 -20 0 -23 -15 -27 -24 -5 -3 8 -1 15 5 15 6 0 7 5 4 10
-3 6 1 10 10 10 12 0 15 6 9 23 -9 29 -8 29 -28 21 -14 -5 -14 -9 -4 -22 11
-13 10 -15 -4 -9 -9 3 -19 1 -22 -6 -5 -9 -7 -9 -12 1 -3 6 -10 10 -15 6 -5
-3 -14 6 -21 20 -11 26 -28 35 -28 16 0 -16 23 -60 29 -55 4 2 13 0 21 -6 12
-7 12 -9 -3 -9 -10 0 -15 -4 -12 -10 3 -5 1 -10 -4 -10 -6 0 -11 -4 -11 -10 0
-16 14 -12 42 14 24 23 26 24 31 6 3 -13 1 -17 -9 -13 -10 3 -21 -11 -35 -43
-12 -27 -26 -50 -30 -52 -5 -2 -9 -11 -9 -19 0 -9 6 -13 14 -10 18 7 29 -32
14 -50 -8 -9 -7 -18 3 -30 13 -15 12 -15 -7 -5 -15 8 -20 18 -17 35 6 31 -16
47 -24 18 -7 -26 -23 -27 -30 -3 -3 14 -12 17 -36 15 -29 -4 -30 -3 -14 10 9
8 17 19 17 25 0 21 29 21 36 -1 5 -12 7 -25 6 -29 -1 -4 5 -5 13 -2 19 8 19
40 0 48 -22 8 -19 38 3 34 9 -2 16 -10 14 -17 -1 -7 2 -10 8 -6 13 8 13 35 0
35 -5 0 -10 7 -10 16 0 9 -3 14 -7 12 -50 -24 -62 -34 -67 -54 -4 -13 -11 -24
-16 -24 -5 0 -7 -7 -4 -15 4 -8 1 -15 -5 -15 -6 0 -11 9 -11 21 0 11 -4 17
-10 14 -7 -4 -9 2 -4 19 7 28 -4 34 -24 14 -28 -28 -9 3 23 36 34 36 45 66 25
66 -5 0 -14 -9 -20 -20 -7 -13 -21 -20 -41 -20 -20 0 -28 -4 -23 -11 4 -8 0
-9 -15 -4 -12 4 -21 2 -21 -4 0 -6 5 -11 10 -11 6 0 10 -8 10 -17 -1 -16 -3
-15 -18 3 -10 11 -24 23 -32 27 -13 4 -12 6 1 6 9 1 16 7 17 14 0 6 4 23 8 36
5 18 4 23 -7 19 -8 -3 -13 -12 -11 -20 1 -8 -8 -20 -21 -25 -20 -9 -26 -7 -42
13 -13 17 -21 21 -30 14 -6 -5 -15 -7 -18 -3 -4 3 -7 -5 -7 -20 0 -16 7 -27
18 -30 16 -4 16 -5 0 -6 -11 -1 -18 -9 -18 -21 0 -28 23 -25 37 5 9 21 8 27
-5 35 -15 8 -14 9 6 10 12 0 22 -5 22 -11 0 -6 7 -9 15 -5 9 3 15 0 15 -9 0
-8 -4 -15 -10 -15 -5 0 -10 -5 -10 -12 0 -6 3 -8 7 -5 3 4 12 2 20 -4 7 -6 13
-8 13 -4 0 4 7 2 15 -5 8 -7 13 -15 11 -19 -2 -3 6 -15 16 -26 20 -20 20 -20
14 2 -4 12 -2 24 5 29 9 5 10 2 6 -10 -4 -10 -1 -19 8 -22 22 -9 18 -31 -5
-37 -11 -3 -20 -1 -20 3 0 15 -47 60 -62 60 -8 0 -19 5 -25 11 -9 9 -11 1 -8
-31 2 -24 9 -46 15 -50 12 -7 -27 -40 -62 -53 -13 -4 -16 -19 -17 -66 0 -34 3
-61 8 -61 4 0 13 16 21 35 14 35 24 43 35 25 3 -5 -3 -18 -15 -30 -11 -11 -20
-24 -20 -30 0 -5 -7 -10 -15 -10 -13 0 -15 -96 -15 -805 l0 -805 1300 0 1300
0 0 865 c-1 560 -4 864 -11 860 -5 -4 -7 -10 -4 -15 3 -4 -2 -10 -10 -13 -14
-6 -11 16 6 39 5 6 6 14 2 18 -4 4 -1 11 7 16 12 7 10 13 -9 34 -14 14 -21 29
-17 33 4 4 11 1 16 -7 7 -12 9 -11 8 5 0 11 3 29 8 40 7 17 5 18 -7 8 -11 -9
-19 -9 -26 -2 -6 6 -17 8 -24 4 -9 -6 -8 -11 5 -20 15 -12 14 -14 -14 -26 -30
-14 -39 -32 -20 -44 6 -4 9 -1 8 6 -2 6 3 14 10 16 10 4 11 -2 6 -24 -9 -36
-9 -36 -33 -24 -21 12 -40 -2 -20 -15 8 -5 9 -3 4 6 -5 8 -4 11 3 6 6 -4 8
-14 5 -23 -4 -11 -8 -13 -11 -5 -2 7 -10 12 -18 12 -8 0 -14 6 -14 13 0 21
-20 35 -41 30 -15 -4 -19 -12 -16 -37 2 -17 2 -23 0 -13 -3 12 -10 16 -20 13
-8 -3 -16 -6 -19 -6 -2 0 -1 -6 2 -14 3 -8 0 -17 -6 -21 -6 -3 -10 -3 -9 2 6
33 -2 42 -26 33 -18 -7 -32 -6 -45 2 -24 15 -33 35 -20 43 6 4 10 0 10 -7 0
-7 8 -18 19 -25 14 -9 21 -8 34 7 9 11 17 26 19 34 5 24 -16 21 -29 -5 -13
-24 -17 -15 -14 24 1 9 -3 17 -8 17 -6 0 -11 -4 -11 -9 0 -14 -32 -23 -43 -12
-6 6 -21 -2 -40 -20 -17 -16 -37 -27 -45 -24 -7 3 -18 5 -23 5 -6 0 -7 5 -3
11 4 7 -1 10 -12 7 -11 -2 -23 -16 -28 -34 -8 -28 -13 -31 -52 -31 -32 0 -41
4 -37 14 3 8 12 12 19 9 17 -7 18 6 2 22 -9 9 -9 12 1 12 7 0 9 5 6 10 -3 6
-2 10 4 10 5 0 13 -4 16 -10 3 -5 11 -10 16 -10 6 0 7 6 3 13 -6 9 -5 9 8 0
12 -11 18 -9 33 7 16 18 16 20 2 20 -10 0 -17 -4 -17 -8 0 -10 -36 -9 -46 1
-4 4 -3 7 3 7 16 0 45 48 33 55 -6 4 -9 1 -8 -7 2 -7 -7 -14 -19 -16 -13 -2
-23 -10 -23 -19 0 -9 -6 -13 -14 -10 -9 4 -16 -4 -21 -21 -10 -41 -45 -58 -45
-22 0 18 11 25 33 21 5 -1 5 9 2 21 -9 30 -17 36 -22 21 -3 -7 -9 -13 -14 -13
-6 0 -7 5 -3 12 5 8 2 9 -9 5 -10 -3 -17 -2 -17 2 0 5 6 11 13 14 6 2 -5 4
-25 4 -20 -1 -34 -5 -32 -9 3 -5 3 -17 -1 -28 -5 -16 -10 -17 -30 -10 -19 7
-23 6 -18 -5 3 -8 0 -15 -6 -15 -6 0 -8 -7 -5 -15 4 -8 0 -22 -7 -31 -12 -14
-14 -14 -21 5 -4 12 -16 21 -28 21 -11 0 -20 5 -20 10 0 6 10 9 23 6 17 -3 23
1 24 16 2 15 -1 17 -12 8 -10 -8 -15 -8 -21 1 -4 8 -3 9 4 5 7 -4 12 0 12 10
0 10 -3 15 -6 11 -4 -3 -13 0 -20 8 -8 7 -22 11 -33 8 -16 -4 -19 -1 -14 16 3
12 8 21 12 21 3 0 6 20 7 45 0 25 -1 45 -4 45 -3 0 -16 -12 -30 -27 l-25 -28
22 -5 23 -5 -21 -24 c-25 -28 -27 -51 -6 -51 8 0 15 -7 15 -15 0 -9 -6 -12
-15 -9 -8 4 -15 10 -15 14 0 4 -10 7 -22 6 -24 -1 -38 -26 -14 -26 27 0 18
-25 -10 -26 -22 -2 -25 1 -20 21 3 13 2 27 -4 30 -18 11 -11 47 10 52 11 3 20
14 20 24 0 20 -16 26 -22 8 -2 -6 -21 -11 -43 -13 -22 -1 -41 -8 -43 -15 -3
-8 0 -11 7 -7 6 4 11 3 11 -3 0 -5 9 -13 21 -16 14 -5 17 -10 10 -19 -16 -19
-6 -72 13 -68 9 2 16 -1 16 -6 0 -11 58 -3 66 9 3 5 13 9 22 8 12 0 11 -3 -5
-9 -13 -5 -23 -14 -23 -19 0 -6 -6 -8 -14 -5 -7 3 -20 -2 -29 -11 -10 -9 -18
-11 -22 -5 -10 16 -25 11 -25 -8 0 -10 -7 -19 -15 -19 -11 0 -12 4 -4 14 8 9
8 13 0 13 -6 0 -11 5 -11 11 0 5 5 7 10 4 6 -3 10 1 10 10 0 9 -5 13 -11 9 -7
-4 -9 0 -5 14 4 11 2 23 -5 27 -8 6 -7 10 2 16 11 6 11 11 2 20 -15 15 -24 9
-26 -20 -1 -13 -8 -21 -19 -21 -9 0 -20 -4 -23 -10 -3 -5 -1 -10 4 -10 6 0 11
-4 11 -10 0 -5 -7 -7 -15 -4 -8 4 -15 15 -15 25 0 13 -5 17 -17 12 -10 -4 -22
-11 -26 -17 -5 -6 -5 3 -2 21 5 26 2 34 -17 45 -21 12 -23 16 -13 43 5 17 17
30 25 30 8 0 15 8 15 17 0 20 44 60 56 52 5 -3 9 1 9 9 0 10 -7 13 -20 10 -12
-3 -20 0 -20 6 0 7 -5 9 -10 6 -6 -4 -8 -11 -5 -16 4 -5 1 -9 -5 -9 -6 0 -8
-4 -5 -10 3 -5 0 -7 -9 -4 -9 3 -17 -2 -21 -15 -3 -12 -11 -21 -16 -21 -5 0
-9 -9 -9 -20 0 -13 -5 -18 -15 -13 -9 3 -15 2 -14 -3 4 -21 -2 -35 -11 -29 -6
4 -17 1 -25 -5 -11 -9 -15 -9 -15 -1 0 6 5 11 10 11 6 0 10 7 10 15 0 9 11 21
25 27 31 14 32 31 3 52 -16 12 -19 18 -10 22 14 6 17 34 3 34 -5 0 -18 3 -28
6 -15 5 -16 4 -3 -6 11 -9 12 -13 3 -17 -7 -2 -13 -9 -13 -15 0 -6 -8 -17 -17
-24 -16 -13 -15 -13 7 -5 23 8 50 -5 50 -24 0 -9 -24 -31 -35 -32 -5 -1 -12
-10 -16 -20 -6 -15 -8 -14 -8 7 -1 14 -12 37 -26 52 -14 15 -25 32 -25 38 0
13 -17 13 -25 -1 -4 -5 1 -19 10 -29 9 -10 14 -23 10 -29 -4 -7 0 -8 11 -4 12
4 15 2 12 -8 -3 -8 -10 -13 -16 -12 -5 1 -9 -12 -9 -30 0 -18 -2 -38 -4 -46
-2 -7 2 -16 9 -18 6 -3 12 3 12 12 0 9 4 14 9 11 9 -6 -15 -66 -25 -66 -3 0
-2 5 1 10 4 6 -4 19 -17 30 -28 23 -38 25 -38 5 0 -8 -4 -15 -9 -15 -16 0 0
40 23 58 16 12 22 28 22 55 0 41 -17 45 -27 6 -6 -23 -7 -23 -14 -4 -5 11 -10
24 -13 29 -3 5 0 6 5 3 11 -7 25 31 17 45 -10 16 -24 8 -24 -14 -1 -21 -2 -21
-11 -5 -14 24 -32 11 -19 -13 6 -11 7 -32 4 -46 -6 -22 -4 -26 9 -21 24 9 27
-17 7 -51 -10 -16 -16 -33 -13 -36 4 -3 2 -6 -4 -6 -6 0 -13 10 -16 22 -5 19
-8 20 -23 7 -10 -8 -15 -9 -11 -3 4 7 1 14 -6 16 -20 8 -37 -2 -37 -23 0 -10
-6 -20 -12 -20 -7 -1 -20 -2 -28 -3 -8 0 -14 -9 -12 -18 2 -11 -3 -18 -13 -18
-10 0 -15 -7 -13 -17 2 -11 11 -17 23 -15 15 2 17 1 6 -6 -7 -6 -10 -15 -7
-21 4 -6 3 -11 -1 -11 -5 0 -13 10 -18 22 -14 30 -33 34 -37 7 -2 -12 -12 -27
-23 -33 -11 -6 -28 -20 -37 -30 -10 -10 -18 -14 -18 -8 0 6 7 17 15 25 8 8 11
18 7 22 -4 5 2 5 12 1 17 -6 17 -5 5 10 -12 15 -11 16 8 10 19 -6 21 -4 19 21
-3 21 -8 28 -25 27 -11 -1 -21 3 -21 8 0 6 7 8 15 4 9 -3 15 0 15 9 0 8 -6 15
-12 15 -9 0 -9 3 1 9 17 11 7 41 -13 41 -10 0 -12 -7 -8 -22 5 -21 4 -22 -11
-9 -11 9 -17 10 -17 2 0 -22 2 -26 13 -23 6 2 3 -6 -7 -17 -12 -13 -26 -19
-38 -15 -10 3 -18 1 -18 -5 0 -6 -5 -11 -11 -11 -8 0 -8 5 1 15 10 12 10 18 0
30 -9 10 -9 15 -1 15 15 0 14 37 -1 42 -7 3 -9 11 -3 24 4 10 7 22 7 27 -1 4
9 7 23 7 14 0 25 4 25 9 0 13 -34 24 -38 12 -2 -6 -8 -9 -13 -5 -5 3 -9 1 -9
-4 0 -6 -9 -8 -20 -5 -22 6 -28 -12 -7 -20 9 -3 9 -9 -2 -27 -11 -20 -11 -24
1 -31 8 -5 15 -24 16 -44 1 -21 -3 -33 -8 -30 -6 4 -8 11 -4 16 7 11 -13 39
-28 39 -6 0 -8 -14 -4 -35 4 -22 3 -35 -4 -35 -5 0 -10 -9 -10 -21 0 -16 5
-19 23 -15 12 3 16 3 10 0 -15 -7 -18 -54 -3 -54 5 0 7 -7 4 -15 -9 -22 -36 2
-29 25 6 18 -25 60 -44 60 -17 0 -13 -18 9 -40 l20 -20 -20 0 c-11 0 -23 -7
-26 -15 -4 -8 -11 -15 -16 -15 -7 0 -7 5 -1 13 5 6 10 25 11 40 1 15 10 45 21
67 14 28 16 41 7 50 -8 8 -7 10 5 5 9 -3 22 1 29 10 7 8 9 15 5 15 -5 0 0 10
11 21 12 14 15 23 8 26 -7 2 -9 14 -6 25 4 17 2 20 -11 15 -11 -4 -17 -1 -17
9 0 8 -7 17 -15 20 -10 4 -12 11 -6 22 7 14 4 17 -14 17 -22 0 -23 -1 -10 -22
19 -28 19 -40 0 -40 -9 0 -15 10 -15 24 0 22 -9 27 -37 24 -22 -3 -24 18 -3
39 11 11 18 25 15 30 -9 15 -35 12 -35 -4z m27 -106 c-4 -15 0 -20 14 -20 10
0 19 -5 19 -11 0 -6 6 -9 14 -6 8 3 17 1 20 -6 5 -9 7 -9 12 1 5 10 9 10 20 1
19 -16 18 -40 -1 -33 -8 4 -22 1 -30 -6 -13 -11 -14 -10 -9 4 4 11 1 16 -10
16 -9 0 -16 -8 -16 -20 0 -10 -8 -24 -17 -29 -10 -6 -13 -11 -8 -12 6 -1 -3
-4 -20 -8 -25 -5 -30 -11 -30 -34 1 -15 -3 -27 -7 -27 -4 0 -8 7 -8 15 0 8 -7
15 -15 15 -8 0 -15 5 -15 11 0 5 6 7 13 3 10 -6 10 -4 0 7 -7 7 -13 20 -12 29
0 10 2 11 6 3 7 -18 52 -16 59 2 4 10 13 13 24 10 15 -5 17 -2 13 15 -5 20
-23 28 -23 10 0 -5 -4 -10 -9 -10 -9 0 -6 75 4 91 11 16 18 10 12 -11z m-27
-20 c0 -5 -2 -10 -4 -10 -3 0 -8 5 -11 10 -3 6 -1 10 4 10 6 0 11 -4 11 -10z
m708 -22 c-2 -6 -10 -14 -16 -16 -7 -2 -10 2 -6 12 7 18 28 22 22 4z m-792
-50 c-11 -15 -16 -18 -16 -7 0 16 21 42 28 34 2 -2 -3 -14 -12 -27z m49 4 c-3
-3 -11 0 -18 7 -9 10 -8 11 6 5 10 -3 15 -9 12 -12z m771 -22 c8 0 14 5 14 12
0 6 3 9 6 6 3 -3 0 -15 -7 -26 -12 -19 -14 -19 -26 -4 -7 9 -12 24 -12 32 1
11 3 10 6 -2 2 -10 11 -18 19 -18z m105 -33 c7 -15 13 -53 14 -84 3 -55 19
-83 56 -95 18 -6 54 -149 53 -210 -1 -44 -7 -64 -28 -91 l-27 -35 7 -134 c6
-111 4 -143 -10 -184 -9 -28 -18 -93 -20 -145 -5 -122 -21 -185 -49 -193 -12
-3 -24 -3 -27 0 -3 3 -4 64 -4 135 2 128 1 130 -20 127 -20 -3 -21 -9 -24
-144 -2 -137 -3 -142 -25 -148 -43 -11 -45 -9 -40 52 3 35 -1 79 -11 117 -9
32 -16 74 -16 92 0 29 -5 35 -39 49 -22 9 -58 37 -82 66 -47 54 -106 93 -164
109 -28 8 -43 7 -67 -5 -39 -20 -38 -20 -38 3 0 63 83 175 179 240 31 22 68
52 83 67 30 33 72 130 62 146 -4 6 -3 8 3 5 5 -3 17 9 26 26 10 18 33 42 52
55 19 12 35 29 35 37 0 8 5 15 10 15 6 0 10 7 10 15 0 8 -4 15 -10 15 -5 0 -8
16 -7 36 3 26 12 45 33 63 39 35 70 35 85 -2z m-923 3 c-14 -22 -24 -19 -15 5
4 8 11 15 17 15 6 0 6 -7 -2 -20z m157 0 c3 -5 2 -10 -4 -10 -5 0 -13 5 -16
10 -3 6 -2 10 4 10 5 0 13 -4 16 -10z m-372 -25 c-6 -29 -30 -53 -30 -30 0 8
4 15 9 15 4 0 8 9 8 20 0 11 4 20 9 20 4 0 6 -11 4 -25z m783 6 c-21 -23 -12
-51 15 -44 18 5 23 14 20 40 -1 6 2 14 7 17 4 2 8 -18 7 -45 0 -27 -3 -49 -7
-49 -5 0 -8 7 -8 15 0 21 -27 19 -39 -2 -10 -17 -10 -17 -11 0 0 12 -4 16 -12
11 -7 -4 -10 -4 -6 1 4 4 3 14 -3 21 -7 9 -4 18 12 33 28 26 48 28 25 2z
m-442 -2 c-2 -4 1 -9 7 -11 16 -5 0 -35 -23 -41 -16 -5 -18 -3 -9 6 16 16 14
40 -3 34 -9 -4 -13 -1 -10 6 2 7 13 13 24 13 10 0 17 -3 14 -7z m591 -10 c6
-19 0 -38 -9 -28 -10 12 -16 49 -7 49 5 0 13 -9 16 -21z m59 -14 c-26 -18 -30
-11 -7 12 10 10 20 15 22 10 1 -4 -5 -14 -15 -22z m680 5 c-9 -16 -22 -30 -30
-30 -8 0 -14 -5 -14 -11 0 -5 -4 -8 -9 -5 -5 4 -12 0 -14 -6 -4 -10 -6 -10 -6
-1 -1 13 37 53 51 53 4 0 8 7 8 15 0 8 6 15 14 15 12 0 12 -4 0 -30z m-790 -6
c9 -24 7 -28 -9 -14 -17 14 -20 30 -6 30 5 0 12 -7 15 -16z m1116 2 c0 -30
-13 -46 -36 -46 -13 0 -24 5 -24 10 0 6 6 10 14 10 7 0 16 9 19 20 6 23 27 27
27 6z m-530 -6 c0 -5 -5 -10 -11 -10 -5 0 -7 5 -4 10 3 6 8 10 11 10 2 0 4 -4
4 -10z m-1580 -15 c7 -9 8 -15 2 -15 -5 0 -12 7 -16 15 -3 8 -4 15 -2 15 2 0
9 -7 16 -15z m380 -25 c3 -39 1 -50 -11 -50 -7 0 -9 10 -5 24 3 14 2 27 -4 31
-5 3 -6 13 -3 21 8 20 21 6 23 -26z m987 26 c-3 -7 -1 -18 5 -24 6 -6 7 -16 2
-23 -5 -9 -10 -5 -15 16 -8 27 -4 45 8 45 3 0 3 -6 0 -14z m1083 -1 c0 -8 -4
-15 -10 -15 -5 0 -10 7 -10 15 0 8 5 15 10 15 6 0 10 -7 10 -15z m-2130 -5 c0
-5 -2 -10 -4 -10 -3 0 -8 5 -11 10 -3 6 -1 10 4 10 6 0 11 -4 11 -10z m1005
-8 c-3 -3 -11 0 -18 7 -9 10 -8 11 6 5 10 -3 15 -9 12 -12z m325 -3 c0 -6 -4
-7 -10 -4 -5 3 -10 11 -10 16 0 6 5 7 10 4 6 -3 10 -11 10 -16z m-1606 -3 c-3
-8 3 -19 15 -25 27 -15 41 -14 41 4 0 8 7 15 15 15 8 0 15 5 15 10 0 6 4 10
10 10 5 0 0 -15 -11 -34 -24 -42 -32 -92 -17 -120 10 -18 9 -19 -4 -8 -20 16
-28 58 -14 73 8 9 6 10 -8 5 -13 -4 -17 -2 -13 8 7 17 -22 31 -36 17 -7 -7 -5
-12 6 -17 21 -8 22 -24 1 -24 -8 0 -12 5 -9 10 3 6 2 10 -3 10 -11 0 -10 49 1
68 11 16 18 15 11 -2z m161 -34 c-2 -7 0 -10 5 -7 6 3 10 -1 10 -9 0 -9 -4
-16 -9 -16 -10 0 -21 24 -27 60 -4 24 -4 24 11 5 9 -11 13 -25 10 -33z m471 3
c-19 -20 -23 -19 -29 5 -6 24 -27 27 -27 4 0 -8 -5 -12 -11 -8 -7 4 -6 12 5
22 13 14 20 14 36 4 26 -16 30 -15 31 6 1 16 2 16 6 0 2 -10 -2 -25 -11 -33z
m399 34 c-4 -6 2 -13 13 -16 11 -3 23 -11 26 -19 7 -17 -3 -44 -15 -44 -13 0
-11 18 4 24 8 3 3 12 -15 26 -29 22 -36 40 -17 40 5 0 7 -5 4 -11z m918 -9 c3
-11 1 -20 -4 -20 -5 0 -9 9 -9 20 0 11 2 20 4 20 2 0 6 -9 9 -20z m-398 -2
c-11 -6 -23 -16 -27 -22 -9 -13 -10 -4 -3 16 3 8 16 14 28 15 21 2 21 2 2 -9z
m-1587 -23 c2 -2 -1 -6 -6 -9 -5 -3 -18 4 -28 16 -19 21 -19 21 6 8 14 -7 26
-14 28 -15z m232 15 c0 -5 -5 -10 -11 -10 -5 0 -7 5 -4 10 3 6 8 10 11 10 2 0
4 -4 4 -10z m200 1 c0 -5 -6 -14 -14 -20 -12 -10 -13 -8 -9 8 5 21 23 30 23
12z m1057 -13 c-3 -8 -6 -5 -6 6 -1 11 2 17 5 13 3 -3 4 -12 1 -19z m937 1
c-6 -11 -24 -2 -24 11 0 5 7 7 15 4 8 -4 12 -10 9 -15z m-2494 7 c0 -3 -4 -8
-10 -11 -5 -3 -10 -1 -10 4 0 6 5 11 10 11 6 0 10 -2 10 -4z m1050 -7 c0 -12
-29 -44 -34 -38 -2 2 0 14 5 27 9 22 29 31 29 11z m355 -10 c-3 -4 -12 -6 -20
-3 -8 4 -13 10 -10 15 3 4 12 6 20 3 8 -4 13 -10 10 -15z m985 12 c0 -6 -4
-13 -10 -16 -5 -3 -10 1 -10 9 0 9 5 16 10 16 6 0 10 -4 10 -9z m-1290 -5 c0
-3 -4 -8 -10 -11 -5 -3 -10 -1 -10 4 0 6 5 11 10 11 6 0 10 -2 10 -4z m620 -6
c0 -5 -2 -10 -4 -10 -3 0 -8 5 -11 10 -3 6 -1 10 4 10 6 0 11 -4 11 -10z
m-1672 -18 c2 -7 -3 -12 -12 -12 -9 0 -16 7 -16 16 0 17 22 14 28 -4z m182 -2
c6 -11 7 -20 2 -20 -6 0 -12 9 -15 20 -3 11 -3 20 -1 20 2 0 8 -9 14 -20z
m1135 10 c3 -5 2 -10 -4 -10 -5 0 -13 5 -16 10 -3 6 -2 10 4 10 5 0 13 -4 16
-10z m761 -10 c0 -21 -11 -26 -21 -10 -12 20 -25 9 -26 -22 -1 -18 -3 -25 -6
-16 -3 11 -11 15 -21 12 -10 -4 -13 -3 -6 3 6 4 13 16 17 25 3 9 16 18 29 21
13 2 25 5 28 6 3 0 6 -8 6 -19z m79 0 c3 -11 1 -28 -5 -37 -9 -16 -10 -15 -5
5 4 13 1 29 -5 37 -8 10 -9 15 -2 15 6 0 13 -9 17 -20z m269 5 c3 -8 1 -15 -4
-15 -6 0 -10 7 -10 15 0 8 2 15 4 15 2 0 6 -7 10 -15z m-2124 1 c0 -3 -4 -8
-10 -11 -5 -3 -10 -1 -10 4 0 6 5 11 10 11 6 0 10 -2 10 -4z m157 -16 c-1 -22
-17 -28 -17 -7 0 12 9 27 16 27 2 0 2 -9 1 -20z m976 5 c-3 -9 -8 -14 -10 -11
-3 3 -2 9 2 15 9 16 15 13 8 -4z m787 6 c0 -5 -9 -7 -20 -4 -11 3 -20 7 -20 9
0 2 9 4 20 4 11 0 20 -4 20 -9z m-1866 -16 c11 -8 16 -18 12 -22 -4 -4 -11 -1
-15 6 -5 7 -13 11 -18 8 -5 -3 -10 0 -10 8 0 19 7 18 31 0z m306 5 c0 -5 -7
-10 -15 -10 -8 0 -15 -7 -15 -15 0 -10 -9 -15 -27 -14 -17 1 -21 3 -10 6 9 2
17 9 17 14 0 7 26 23 48 28 1 1 2 -3 2 -9z m895 0 c3 -5 -1 -10 -10 -10 -9 0
-13 5 -10 10 3 6 8 10 10 10 2 0 7 -4 10 -10z m579 1 c3 -5 0 -11 -7 -14 -8
-3 -14 1 -14 9 0 16 13 19 21 5z m-1869 -11 c3 -5 1 -10 -4 -10 -6 0 -11 5
-11 10 0 6 2 10 4 10 3 0 8 -4 11 -10z m694 -13 c0 -9 -2 -8 -6 1 -2 6 -10 9
-15 6 -7 -4 -8 -2 -4 5 9 13 26 5 25 -12z m86 13 c3 -5 1 -10 -4 -10 -6 0 -11
5 -11 10 0 6 2 10 4 10 3 0 8 -4 11 -10z m612 -12 c-3 -8 -6 -5 -6 6 -1 11 2
17 5 13 3 -3 4 -12 1 -19z m673 12 c0 -5 -5 -10 -11 -10 -5 0 -7 5 -4 10 3 6
8 10 11 10 2 0 4 -4 4 -10z m-2310 -35 c0 -5 -5 -3 -10 5 -5 8 -10 20 -10 25
0 6 5 3 10 -5 5 -8 10 -19 10 -25z m530 -12 c0 -13 7 -26 15 -29 16 -6 21 -24
7 -24 -12 0 -40 54 -35 68 3 6 0 12 -6 12 -6 0 -11 5 -11 11 0 8 5 8 15 -1 8
-7 15 -23 15 -37z m230 31 c0 -2 -9 -4 -20 -4 -11 0 -20 4 -20 9 0 5 9 7 20 4
11 -3 20 -7 20 -9z m1444 1 c4 -10 -1 -15 -14 -15 -13 0 -18 5 -14 15 4 8 10
15 14 15 4 0 10 -7 14 -15z m63 0 c0 -10 -6 -14 -14 -10 -8 3 -18 5 -21 6 -4
0 2 4 13 9 11 5 20 9 21 9 0 1 1 -6 1 -14z m-1557 -16 c0 -6 -4 -7 -10 -4 -5
3 -10 11 -10 16 0 6 5 7 10 4 6 -3 10 -11 10 -16z m-500 1 c0 -5 -4 -10 -9
-10 -6 0 -13 5 -16 10 -3 6 1 10 9 10 9 0 16 -4 16 -10z m56 -29 c-10 -11 -15
-25 -11 -30 3 -6 1 -11 -5 -11 -13 0 -10 50 5 67 6 7 14 8 19 2 6 -5 3 -16 -8
-28z m1349 30 c3 -5 1 -12 -5 -16 -5 -3 -10 1 -10 9 0 18 6 21 15 7z m175 -7
c0 -8 -5 -12 -10 -9 -6 4 -8 11 -5 16 9 14 15 11 15 -7z m80 12 c0 -2 -7 -7
-16 -10 -8 -3 -12 -2 -9 4 6 10 25 14 25 6z m534 -12 c5 -14 4 -15 -9 -4 -17
14 -19 20 -6 20 5 0 12 -7 15 -16z m-1977 -16 c-3 -8 -6 -5 -6 6 -1 11 2 17 5
13 3 -3 4 -12 1 -19z m428 1 c10 -30 2 -32 -12 -3 -6 13 -7 24 -3 24 5 0 12
-9 15 -21z m-675 -31 c0 -17 -2 -18 -15 -4 -8 8 -15 19 -15 25 0 6 7 8 15 5 8
-4 15 -15 15 -26z m415 3 c-6 -5 -25 10 -25 20 0 5 6 4 14 -3 8 -7 12 -15 11
-17z m1559 13 c3 -8 2 -12 -4 -9 -6 3 -10 10 -10 16 0 14 7 11 14 -7z m-1930
-9 c3 -8 1 -15 -4 -15 -6 0 -10 7 -10 15 0 8 2 15 4 15 2 0 6 -7 10 -15z m146
9 c0 -8 -19 -13 -24 -6 -3 5 1 9 9 9 8 0 15 -2 15 -3z m264 -18 c-3 -9 -10
-16 -15 -16 -6 0 -5 9 1 21 13 24 24 20 14 -5z m1580 8 c3 -8 2 -12 -4 -9 -6
3 -10 10 -10 16 0 14 7 11 14 -7z m-2244 -10 c-15 -17 -17 -17 -23 -1 -3 8 3
14 15 14 16 2 17 -1 8 -13z m506 7 c-4 -5 0 -12 6 -14 8 -3 6 -6 -4 -6 -10 -1
-18 6 -18 14 0 8 5 15 11 15 5 0 8 -4 5 -9z m-399 -15 c0 -8 -8 -11 -20 -8
-14 4 -16 7 -5 13 19 12 25 11 25 -5z m606 -12 c-3 -8 -6 -14 -7 -12 -1 2 -7
11 -14 20 -11 14 -10 16 7 11 12 -3 17 -11 14 -19z m93 11 c9 -8 11 -15 6 -15
-5 0 -15 7 -22 15 -7 8 -9 15 -6 15 4 0 14 -7 22 -15z m-852 -11 c3 -8 2 -12
-4 -9 -6 3 -10 10 -10 16 0 14 7 11 14 -7z m1796 12 c0 -11 -19 -15 -25 -6 -3
5 1 10 9 10 9 0 16 -2 16 -4z m-1820 -16 c0 -5 -2 -10 -4 -10 -3 0 -8 5 -11
10 -3 6 -1 10 4 10 6 0 11 -4 11 -10z m486 -11 c3 -5 -3 -6 -13 -2 -16 6 -16
5 -4 -10 8 -11 9 -17 3 -17 -6 0 -16 9 -22 21 -9 16 -14 18 -26 8 -9 -7 -14
-8 -14 -1 0 20 63 21 76 1z m-251 1 c3 -5 1 -10 -4 -10 -6 0 -11 5 -11 10 0 6
2 10 4 10 3 0 8 -4 11 -10z m131 1 c16 13 17 12 11 -4 -4 -10 -7 -26 -7 -35 0
-13 -4 -11 -20 6 -12 12 -25 22 -30 22 -6 0 -10 5 -10 10 0 6 8 5 19 -2 15 -9
23 -9 37 3z m261 -6 c0 -8 -4 -12 -9 -9 -5 3 -6 10 -3 15 9 13 12 11 12 -6z
m1777 0 c3 -8 1 -15 -3 -15 -5 0 -11 7 -15 15 -3 8 -1 15 3 15 5 0 11 -7 15
-15z m151 5 c3 -5 1 -10 -4 -10 -6 0 -11 5 -11 10 0 6 2 10 4 10 3 0 8 -4 11
-10z m-1859 -18 c0 -23 -22 -46 -31 -32 -3 6 -1 10 4 10 6 0 11 9 11 20 0 11
4 20 8 20 4 0 8 -8 8 -18z m-408 -17 c-3 -3 -9 2 -12 12 -6 14 -5 15 5 6 7 -7
10 -15 7 -18z m2082 21 c0 -3 -4 -8 -10 -11 -5 -3 -10 -1 -10 4 0 6 5 11 10
11 6 0 10 -2 10 -4z m-2175 -16 c3 -5 1 -10 -4 -10 -6 0 -11 5 -11 10 0 6 2
10 4 10 3 0 8 -4 11 -10z m545 -20 c0 -5 -2 -10 -4 -10 -3 0 -8 5 -11 10 -3 6
-1 10 4 10 6 0 11 -4 11 -10z m-242 -25 c-3 -3 -9 2 -12 12 -6 14 -5 15 5 6 7
-7 10 -15 7 -18z m-253 -55 c3 -5 1 -10 -4 -10 -6 0 -11 5 -11 10 0 6 2 10 4
10 3 0 8 -4 11 -10z"/>
<path d="M752 2088 c-7 -7 -12 -16 -12 -21 0 -5 7 -1 16 8 9 9 14 18 12 20 -2
3 -10 -1 -16 -7z"/>
<path d="M925 2079 c-4 -6 -19 -7 -37 -4 -25 6 -29 4 -26 -11 4 -23 58 -31 58
-8 0 8 3 13 8 13 18 -3 32 2 32 11 0 13 -27 13 -35 -1z"/>
<path d="M1238 2083 c-10 -2 -18 -13 -18 -24 0 -11 5 -17 10 -14 6 3 10 1 10
-6 0 -22 11 -2 14 25 2 14 3 25 2 25 0 -1 -9 -3 -18 -6z"/>
<path d="M1610 2084 c0 -12 21 -44 29 -44 5 0 6 11 3 25 -2 14 -11 25 -18 25
-8 0 -14 -3 -14 -6z"/>
<path d="M329 2073 c-1 -5 -1 -12 0 -16 1 -5 -8 -6 -19 -2 -11 3 -20 2 -20 -4
0 -20 41 -23 55 -4 19 24 18 33 0 33 -8 0 -16 -3 -16 -7z"/>
<path d="M460 2060 c0 -5 5 -10 10 -10 6 0 10 5 10 10 0 6 -4 10 -10 10 -5 0
-10 -4 -10 -10z"/>
<path d="M763 2055 c-3 -9 -3 -18 0 -21 9 -9 27 6 27 22 0 19 -19 18 -27 -1z"/>
<path d="M1570 2060 c0 -5 4 -10 9 -10 6 0 13 5 16 10 3 6 -1 10 -9 10 -9 0
-16 -4 -16 -10z"/>
<path d="M677 2042 c-28 -17 -33 -43 -9 -48 7 -1 8 0 2 3 -19 9 -10 21 20 28
17 4 30 13 30 21 0 17 -8 17 -43 -4z"/>
<path d="M835 2050 c3 -5 8 -10 11 -10 2 0 4 5 4 10 0 6 -5 10 -11 10 -5 0 -7
-4 -4 -10z"/>
<path d="M1357 2039 c4 -13 8 -18 11 -10 2 7 -1 18 -6 23 -8 8 -9 4 -5 -13z"/>
<path d="M993 2043 c-18 -7 -16 -23 2 -23 8 0 15 5 15 12 0 9 3 9 12 0 7 -7
17 -12 23 -12 5 0 1 7 -9 15 -21 16 -24 16 -43 8z"/>
<path d="M1720 2040 c0 -5 4 -10 9 -10 6 0 13 5 16 10 3 6 -1 10 -9 10 -9 0
-16 -4 -16 -10z"/>
<path d="M218 2033 c-17 -3 -28 -11 -28 -20 0 -8 -6 -13 -13 -10 -8 3 -14 -4
-15 -19 -1 -15 4 -24 13 -24 8 0 15 4 15 10 0 5 6 7 14 4 10 -4 16 2 18 18 2
15 11 24 26 26 12 2 22 8 22 13 0 9 -3 9 -52 2z"/>
<path d="M1336 2031 c-4 -7 -5 -15 -2 -18 9 -9 19 4 14 18 -4 11 -6 11 -12 0z"/>
<path d="M1810 2030 c0 -5 4 -10 9 -10 6 0 13 5 16 10 3 6 -1 10 -9 10 -9 0
-16 -4 -16 -10z"/>
<path d="M1880 2032 c0 -7 -7 -12 -15 -12 -8 0 -24 -10 -35 -22 -19 -21 -20
-24 -4 -35 18 -13 34 -9 34 10 0 7 -4 6 -10 -3 -8 -13 -10 -12 -10 3 0 9 7 17
15 17 15 0 40 38 31 48 -3 3 -6 0 -6 -6z"/>
<path d="M720 2011 c-13 -25 -13 -31 0 -31 6 0 10 7 10 15 0 8 5 15 10 15 6 0
10 5 10 10 0 17 -19 11 -30 -9z"/>
<path d="M800 2015 c0 -8 5 -15 10 -15 6 0 10 7 10 15 0 8 -4 15 -10 15 -5 0
-10 -7 -10 -15z"/>
<path d="M837 2023 c-9 -15 2 -45 16 -40 6 2 13 9 15 17 3 7 0 10 -6 6 -6 -3
-12 2 -14 11 -2 12 -6 14 -11 6z"/>
<path d="M926 2014 c-4 -10 -14 -14 -25 -11 -15 3 -23 -3 -32 -25 l-12 -30
-18 23 c-10 13 -19 22 -20 19 0 -3 -2 -13 -4 -22 -2 -11 2 -15 11 -11 8 3 14
1 14 -5 0 -6 -14 -13 -31 -17 -21 -5 -29 -11 -25 -22 3 -8 6 -16 6 -17 0 -2
11 -1 25 2 14 2 25 11 25 21 0 10 3 12 8 5 5 -9 11 -8 20 2 7 8 9 14 5 14 -4
0 -2 5 5 12 8 8 15 8 27 -2 13 -10 15 -9 15 9 0 11 5 20 11 19 6 -2 13 9 14
25 4 29 -9 37 -19 11z"/>
<path d="M332 2013 c3 -17 -14 -41 -26 -37 -17 6 -40 -22 -33 -40 3 -8 1 -17
-6 -20 -7 -2 -5 -5 5 -5 9 -1 19 7 23 18 4 13 12 17 29 14 22 -4 24 -2 22 26
-1 17 2 31 7 31 4 0 5 5 2 10 -7 12 -26 14 -23 3z"/>
<path d="M762 2009 c2 -6 8 -10 13 -10 5 0 11 4 13 10 2 6 -4 11 -13 11 -9 0
-15 -5 -13 -11z"/>
<path d="M1483 2000 c6 -23 -16 -56 -31 -46 -6 4 -9 13 -5 21 3 9 -1 15 -11
15 -18 0 -22 -25 -6 -35 6 -3 10 -12 9 -18 0 -9 -2 -9 -6 1 -2 6 -12 12 -20
12 -9 0 -13 -6 -9 -15 4 -10 -1 -15 -14 -15 -25 0 -26 -22 -1 -37 16 -10 22
-9 32 3 8 9 21 13 35 10 19 -5 24 -1 29 24 7 32 42 51 56 29 4 -7 11 -10 15
-6 10 9 -33 50 -45 42 -5 -3 -7 4 -4 15 4 14 0 20 -12 20 -12 0 -16 -6 -12
-20z"/>
<path d="M1545 2010 c-7 -12 2 -30 16 -30 5 0 9 9 9 20 0 21 -15 27 -25 10z"/>
<path d="M60 2001 c0 -5 5 -13 10 -16 6 -3 10 -2 10 4 0 5 -4 13 -10 16 -5 3
-10 2 -10 -4z"/>
<path d="M1040 1996 c0 -7 7 -19 16 -27 13 -10 17 -10 24 1 5 8 3 19 -5 27
-18 17 -35 17 -35 -1z"/>
<path d="M1760 1999 c0 -5 -4 -7 -10 -4 -5 3 -10 -1 -10 -9 0 -9 -4 -16 -10
-16 -5 0 -10 -5 -10 -11 0 -5 13 -2 30 8 29 17 41 43 20 43 -5 0 -10 -5 -10
-11z"/>
<path d="M1887 2003 c-12 -11 -8 -23 8 -23 8 0 15 7 15 15 0 16 -12 20 -23 8z"/>
<path d="M1965 1989 c-4 -6 -3 -15 3 -21 6 -6 11 -4 15 6 7 18 -9 31 -18 15z"/>
<path d="M969 1968 c-5 -59 13 -106 30 -79 6 9 19 12 39 8 20 -4 32 -2 36 6 2
7 5 1 5 -12 1 -20 3 -21 16 -11 19 16 20 40 1 40 -8 0 -16 6 -19 14 -4 9 -14
12 -28 9 -17 -5 -20 -3 -14 7 5 8 4 11 -3 6 -6 -4 -9 -13 -5 -21 4 -11 1 -13
-11 -9 -8 3 -14 15 -13 27 1 13 -5 23 -15 25 -10 2 -18 -2 -19 -10z"/>
<path d="M1790 1969 c0 -5 -4 -8 -8 -5 -4 3 -13 -8 -19 -25 -11 -29 -8 -35 14
-21 12 8 29 62 19 62 -3 0 -6 -5 -6 -11z"/>
<path d="M1806 1953 c-11 -11 -6 -23 9 -23 8 0 15 4 15 9 0 13 -16 22 -24 14z"/>
<path d="M1898 1953 c7 -3 16 -2 19 1 4 3 -2 6 -13 5 -11 0 -14 -3 -6 -6z"/>
<path d="M2330 1944 c0 -8 5 -12 10 -9 6 3 10 10 10 16 0 5 -4 9 -10 9 -5 0
-10 -7 -10 -16z"/>
<path d="M893 1926 c4 -9 2 -16 -4 -16 -6 0 -9 -7 -5 -15 3 -8 1 -15 -4 -15
-5 0 -9 -16 -8 -35 2 -57 34 -28 52 47 5 21 2 30 -15 39 -19 10 -21 9 -16 -5z"/>
<path d="M1896 1932 c-3 -5 4 -16 14 -25 22 -19 38 -4 20 18 -14 17 -26 19
-34 7z"/>
<path d="M2210 1929 c0 -5 5 -7 10 -4 6 3 10 8 10 11 0 2 -4 4 -10 4 -5 0 -10
-5 -10 -11z"/>
<path d="M750 1905 c0 -9 5 -15 11 -13 6 2 11 8 11 13 0 5 -5 11 -11 13 -6 2
-11 -4 -11 -13z"/>
<path d="M1607 1901 c-26 -10 -22 -24 8 -28 17 -3 25 1 25 11 0 20 -11 25 -33
17z"/>
<path d="M2290 1900 c0 -5 5 -10 10 -10 6 0 10 5 10 10 0 6 -4 10 -10 10 -5 0
-10 -4 -10 -10z"/>
<path d="M951 1878 c7 -16 16 -28 21 -28 13 0 10 9 -13 33 l-21 22 13 -27z"/>
<path d="M1160 1890 c0 -5 5 -10 10 -10 6 0 10 5 10 10 0 6 -4 10 -10 10 -5 0
-10 -4 -10 -10z"/>
<path d="M1425 1879 c-10 -15 0 -22 36 -26 21 -2 29 1 26 9 -2 7 -12 12 -22
10 -10 -2 -14 1 -10 7 3 6 -1 11 -9 11 -8 0 -18 -5 -21 -11z"/>
<path d="M1973 1873 c9 -9 20 -13 24 -9 4 4 1 11 -7 16 -25 16 -35 11 -17 -7z"/>
<path d="M2190 1884 c0 -8 49 -54 56 -54 3 0 4 6 1 13 -2 6 0 20 5 30 5 11 5
17 -2 17 -5 0 -10 -7 -10 -15 0 -8 -4 -15 -9 -15 -5 0 -11 7 -15 15 -5 15 -26
21 -26 9z"/>
<path d="M19 1857 c10 -28 31 -34 31 -9 0 11 -8 22 -19 25 -16 4 -18 1 -12
-16z"/>
<path d="M250 1870 c0 -5 5 -10 10 -10 6 0 10 5 10 10 0 6 -4 10 -10 10 -5 0
-10 -4 -10 -10z"/>
<path d="M1780 1865 c0 -8 5 -15 10 -15 6 0 10 7 10 15 0 8 -4 15 -10 15 -5 0
-10 -7 -10 -15z"/>
<path d="M2310 1860 c0 -19 3 -21 12 -12 9 9 9 15 0 24 -9 9 -12 7 -12 -12z"/>
<path d="M2380 1866 c0 -8 5 -18 10 -21 6 -3 10 1 10 9 0 8 -4 18 -10 21 -5 3
-10 -1 -10 -9z"/>
<path d="M2160 1860 c0 -5 5 -10 10 -10 6 0 10 5 10 10 0 6 -4 10 -10 10 -5 0
-10 -4 -10 -10z"/>
<path d="M0 1813 c0 -59 16 -70 43 -29 14 21 14 25 2 30 -9 3 -15 -1 -15 -9 0
-8 -5 -15 -11 -15 -7 0 -9 9 -6 23 4 12 2 29 -3 37 -7 11 -10 -1 -10 -37z"/>
<path d="M754 1849 c-7 -12 22 -46 32 -37 8 9 -5 48 -16 48 -5 0 -12 -5 -16
-11z"/>
<path d="M1830 1856 c0 -2 7 -7 16 -10 8 -3 12 -2 9 4 -6 10 -25 14 -25 6z"/>
<path d="M2119 1843 c5 -10 12 -26 15 -35 8 -26 25 -22 18 5 -6 22 -25 47 -36
47 -4 0 -2 -8 3 -17z"/>
<path d="M2351 1842 c-7 -13 -7 -22 1 -30 19 -19 28 -14 28 12 0 32 -16 42
-29 18z"/>
<path d="M912 1818 c-7 -7 -12 -16 -12 -21 0 -5 7 -1 16 8 9 9 14 18 12 20 -2
3 -10 -1 -16 -7z"/>
<path d="M2430 1822 c0 -5 9 -17 19 -26 22 -20 40 -4 21 19 -13 16 -40 20 -40
7z"/>
<path d="M640 1804 c0 -17 22 -14 28 4 2 7 -3 12 -12 12 -9 0 -16 -7 -16 -16z"/>
<path d="M2030 1769 c0 -22 25 -26 33 -5 3 8 -2 16 -14 19 -14 4 -19 0 -19
-14z"/>
<path d="M2346 1783 c-11 -11 -6 -23 9 -23 8 0 15 4 15 9 0 13 -16 22 -24 14z"/>
</g>
</svg>
